<mxfile host="65bd71144e">
    <diagram id="bpbkTxAe3MsM5qXTKhsR" name="Page-1">
        <mxGraphModel dx="2257" dy="431" grid="1" gridSize="10" guides="1" tooltips="1" connect="1" arrows="1" fold="1" page="1" pageScale="1" pageWidth="1100" pageHeight="850" math="0" shadow="0">
            <root>
                <mxCell id="0"/>
                <mxCell id="1" parent="0"/>
                <mxCell id="154" value="Composite Design Pattern" style="text;html=1;align=center;verticalAlign=middle;resizable=1;points=[];autosize=1;strokeColor=#C73500;fillColor=#fa6800;fontColor=#000000;fontSize=25;movable=1;rotatable=1;deletable=1;editable=1;connectable=1;" parent="1" vertex="1">
                    <mxGeometry x="-1075" y="40" width="320" height="40" as="geometry"/>
                </mxCell>
                <mxCell id="201" value="&lt;span style=&quot;font-size: 14px;&quot;&gt;ٍٍEnables you to compose objects into tree-like structures to represent part-whole hierarchies. It allows clients to treat individual objects and compositions of objects uniformly.&lt;/span&gt;" style="shape=note2;boundedLbl=1;whiteSpace=wrap;html=1;size=25;verticalAlign=top;align=left;movable=1;resizable=1;rotatable=1;deletable=1;editable=1;connectable=1;" parent="1" vertex="1">
                    <mxGeometry x="-700" y="25" width="590" height="75" as="geometry"/>
                </mxCell>
                <mxCell id="431" value="Component" style="whiteSpace=wrap;html=1;strokeColor=#80FF00;fillColor=none;" parent="1" vertex="1">
                    <mxGeometry x="-830" y="200" width="120" height="50" as="geometry"/>
                </mxCell>
                <mxCell id="435" value="Composite" style="whiteSpace=wrap;html=1;strokeColor=#FFB366;fillColor=none;" parent="1" vertex="1">
                    <mxGeometry x="-750" y="320" width="90" height="40" as="geometry"/>
                </mxCell>
                <mxCell id="436" value="client" style="whiteSpace=wrap;html=1;strokeColor=#F0F0F0;fillColor=none;" parent="1" vertex="1">
                    <mxGeometry x="-1030" y="205" width="90" height="40" as="geometry"/>
                </mxCell>
                <mxCell id="437" value="" style="endArrow=block;dashed=1;endFill=0;endSize=12;html=1;entryX=0.5;entryY=1;entryDx=0;entryDy=0;exitX=0.5;exitY=0;exitDx=0;exitDy=0;" parent="1" target="431" edge="1">
                    <mxGeometry width="160" relative="1" as="geometry">
                        <mxPoint x="-835" y="320" as="sourcePoint"/>
                        <mxPoint x="-650" y="390" as="targetPoint"/>
                    </mxGeometry>
                </mxCell>
                <mxCell id="565" value="inherit" style="edgeLabel;html=1;align=center;verticalAlign=middle;resizable=0;points=[];" parent="437" vertex="1" connectable="0">
                    <mxGeometry x="0.3189" y="-1" relative="1" as="geometry">
                        <mxPoint y="1" as="offset"/>
                    </mxGeometry>
                </mxCell>
                <mxCell id="567" value="inherit" style="edgeLabel;html=1;align=center;verticalAlign=middle;resizable=0;points=[];" parent="437" vertex="1" connectable="0">
                    <mxGeometry x="0.3189" y="-1" relative="1" as="geometry">
                        <mxPoint x="46" y="6" as="offset"/>
                    </mxGeometry>
                </mxCell>
                <mxCell id="438" value="" style="endArrow=block;dashed=1;endFill=0;endSize=12;html=1;entryX=0.5;entryY=1;entryDx=0;entryDy=0;exitX=0.5;exitY=0;exitDx=0;exitDy=0;" parent="1" source="435" target="431" edge="1">
                    <mxGeometry width="160" relative="1" as="geometry">
                        <mxPoint x="-900" y="400" as="sourcePoint"/>
                        <mxPoint x="-740" y="400" as="targetPoint"/>
                    </mxGeometry>
                </mxCell>
                <mxCell id="439" value="" style="endArrow=diamondThin;endFill=0;endSize=24;html=1;entryX=1;entryY=0.5;entryDx=0;entryDy=0;exitX=1;exitY=0.5;exitDx=0;exitDy=0;" parent="1" source="431" target="435" edge="1">
                    <mxGeometry width="160" relative="1" as="geometry">
                        <mxPoint x="-860" y="300" as="sourcePoint"/>
                        <mxPoint x="-700" y="300" as="targetPoint"/>
                        <Array as="points">
                            <mxPoint x="-620" y="225"/>
                            <mxPoint x="-620" y="340"/>
                        </Array>
                    </mxGeometry>
                </mxCell>
                <mxCell id="599" value="0..n" style="edgeLabel;html=1;align=center;verticalAlign=middle;resizable=0;points=[];" parent="439" vertex="1" connectable="0">
                    <mxGeometry x="-0.7695" y="1" relative="1" as="geometry">
                        <mxPoint x="-1" as="offset"/>
                    </mxGeometry>
                </mxCell>
                <mxCell id="440" value="Use" style="endArrow=open;endSize=12;dashed=1;html=1;entryX=0;entryY=0.5;entryDx=0;entryDy=0;exitX=1;exitY=0.5;exitDx=0;exitDy=0;exitPerimeter=0;" parent="1" target="431" edge="1" source="436">
                    <mxGeometry width="160" relative="1" as="geometry">
                        <mxPoint x="-940" y="229.65999999999997" as="sourcePoint"/>
                        <mxPoint x="-780" y="229.65999999999997" as="targetPoint"/>
                    </mxGeometry>
                </mxCell>
                <mxCell id="596" value="" style="group" parent="1" vertex="1" connectable="0">
                    <mxGeometry x="-1050" y="910" width="900" height="350" as="geometry"/>
                </mxCell>
                <mxCell id="445" value="Comp" style="whiteSpace=wrap;html=1;strokeColor=#FFB366;" parent="596" vertex="1">
                    <mxGeometry x="100" width="70" height="40" as="geometry"/>
                </mxCell>
                <mxCell id="446" style="edgeStyle=none;html=1;entryX=0.5;entryY=1;entryDx=0;entryDy=0;" parent="596" source="447" target="445" edge="1">
                    <mxGeometry relative="1" as="geometry">
                        <Array as="points">
                            <mxPoint x="25" y="60"/>
                            <mxPoint x="130" y="60"/>
                        </Array>
                    </mxGeometry>
                </mxCell>
                <mxCell id="447" value="emp1" style="ellipse;whiteSpace=wrap;html=1;strokeColor=#0066CC;" parent="596" vertex="1">
                    <mxGeometry y="90" width="50" height="50" as="geometry"/>
                </mxCell>
                <mxCell id="448" style="edgeStyle=none;html=1;entryX=0.5;entryY=1;entryDx=0;entryDy=0;" parent="596" source="449" target="445" edge="1">
                    <mxGeometry relative="1" as="geometry"/>
                </mxCell>
                <mxCell id="449" value="dep1" style="whiteSpace=wrap;html=1;strokeColor=#FFB366;" parent="596" vertex="1">
                    <mxGeometry x="100" y="90" width="70" height="40" as="geometry"/>
                </mxCell>
                <mxCell id="450" style="edgeStyle=none;html=1;entryX=0.5;entryY=1;entryDx=0;entryDy=0;" parent="596" source="451" target="445" edge="1">
                    <mxGeometry relative="1" as="geometry">
                        <mxPoint x="150" y="40" as="targetPoint"/>
                        <Array as="points">
                            <mxPoint x="260" y="60"/>
                            <mxPoint x="140" y="60"/>
                        </Array>
                    </mxGeometry>
                </mxCell>
                <mxCell id="451" value="dep2" style="whiteSpace=wrap;html=1;strokeColor=#FFB366;" parent="596" vertex="1">
                    <mxGeometry x="225" y="90" width="70" height="40" as="geometry"/>
                </mxCell>
                <mxCell id="452" value="directory1" style="whiteSpace=wrap;html=1;" parent="596" vertex="1">
                    <mxGeometry x="320" y="150" width="70" height="40" as="geometry"/>
                </mxCell>
                <mxCell id="453" style="edgeStyle=none;html=1;entryX=0.567;entryY=1.026;entryDx=0;entryDy=0;entryPerimeter=0;" parent="596" source="454" target="451" edge="1">
                    <mxGeometry relative="1" as="geometry">
                        <Array as="points">
                            <mxPoint x="360" y="140"/>
                            <mxPoint x="265" y="140"/>
                        </Array>
                    </mxGeometry>
                </mxCell>
                <mxCell id="454" value="dep3" style="whiteSpace=wrap;html=1;strokeColor=#FFB366;" parent="596" vertex="1">
                    <mxGeometry x="320" y="150" width="70" height="40" as="geometry"/>
                </mxCell>
                <mxCell id="455" style="edgeStyle=none;html=1;" parent="596" source="456" edge="1">
                    <mxGeometry relative="1" as="geometry">
                        <mxPoint x="265" y="130" as="targetPoint"/>
                    </mxGeometry>
                </mxCell>
                <mxCell id="456" value="emp4" style="ellipse;whiteSpace=wrap;html=1;strokeColor=#0066CC;" parent="596" vertex="1">
                    <mxGeometry x="240" y="150" width="50" height="50" as="geometry"/>
                </mxCell>
                <mxCell id="457" style="edgeStyle=none;html=1;entryX=0.142;entryY=1.058;entryDx=0;entryDy=0;entryPerimeter=0;" parent="596" source="458" target="454" edge="1">
                    <mxGeometry relative="1" as="geometry">
                        <Array as="points">
                            <mxPoint x="330" y="235"/>
                        </Array>
                    </mxGeometry>
                </mxCell>
                <mxCell id="458" value="emp5" style="ellipse;whiteSpace=wrap;html=1;strokeColor=#0066CC;" parent="596" vertex="1">
                    <mxGeometry x="350" y="210" width="50" height="50" as="geometry"/>
                </mxCell>
                <mxCell id="459" style="edgeStyle=none;html=1;entryX=0.149;entryY=1.012;entryDx=0;entryDy=0;entryPerimeter=0;" parent="596" source="460" target="454" edge="1">
                    <mxGeometry relative="1" as="geometry">
                        <Array as="points">
                            <mxPoint x="330" y="300"/>
                        </Array>
                    </mxGeometry>
                </mxCell>
                <mxCell id="460" value="emp5" style="ellipse;whiteSpace=wrap;html=1;strokeColor=#0066CC;" parent="596" vertex="1">
                    <mxGeometry x="350" y="280" width="50" height="50" as="geometry"/>
                </mxCell>
                <mxCell id="461" value="file1" style="ellipse;whiteSpace=wrap;html=1;" parent="596" vertex="1">
                    <mxGeometry x="140" y="145" width="50" height="50" as="geometry"/>
                </mxCell>
                <mxCell id="462" style="edgeStyle=none;html=1;entryX=0.25;entryY=1;entryDx=0;entryDy=0;" parent="596" source="463" target="449" edge="1">
                    <mxGeometry relative="1" as="geometry">
                        <Array as="points">
                            <mxPoint x="120" y="170"/>
                        </Array>
                    </mxGeometry>
                </mxCell>
                <mxCell id="463" value="emp2" style="ellipse;whiteSpace=wrap;html=1;strokeColor=#0066CC;" parent="596" vertex="1">
                    <mxGeometry x="140" y="145" width="50" height="50" as="geometry"/>
                </mxCell>
                <mxCell id="464" style="edgeStyle=none;html=1;entryX=0.25;entryY=1;entryDx=0;entryDy=0;" parent="596" source="465" target="449" edge="1">
                    <mxGeometry relative="1" as="geometry">
                        <Array as="points">
                            <mxPoint x="118" y="230"/>
                        </Array>
                    </mxGeometry>
                </mxCell>
                <mxCell id="465" value="emp3" style="ellipse;whiteSpace=wrap;html=1;strokeColor=#0066CC;" parent="596" vertex="1">
                    <mxGeometry x="140" y="205" width="50" height="50" as="geometry"/>
                </mxCell>
                <mxCell id="470" value="Comp" style="whiteSpace=wrap;html=1;strokeColor=#87511B;" parent="596" vertex="1">
                    <mxGeometry x="600" y="10" width="70" height="40" as="geometry"/>
                </mxCell>
                <mxCell id="471" style="edgeStyle=none;html=1;entryX=0.5;entryY=1;entryDx=0;entryDy=0;" parent="596" source="472" target="470" edge="1">
                    <mxGeometry relative="1" as="geometry">
                        <Array as="points">
                            <mxPoint x="525" y="70"/>
                            <mxPoint x="630" y="70"/>
                        </Array>
                    </mxGeometry>
                </mxCell>
                <mxCell id="472" value="emp1" style="ellipse;whiteSpace=wrap;html=1;strokeColor=#0066CC;" parent="596" vertex="1">
                    <mxGeometry x="500" y="100" width="50" height="50" as="geometry"/>
                </mxCell>
                <mxCell id="473" style="edgeStyle=none;html=1;entryX=0.5;entryY=1;entryDx=0;entryDy=0;" parent="596" source="474" target="470" edge="1">
                    <mxGeometry relative="1" as="geometry"/>
                </mxCell>
                <mxCell id="474" value="Dep1" style="whiteSpace=wrap;html=1;strokeColor=#87511B;" parent="596" vertex="1">
                    <mxGeometry x="600" y="100" width="70" height="40" as="geometry"/>
                </mxCell>
                <mxCell id="475" style="edgeStyle=none;html=1;entryX=0.5;entryY=1;entryDx=0;entryDy=0;" parent="596" source="476" target="470" edge="1">
                    <mxGeometry relative="1" as="geometry">
                        <mxPoint x="650" y="50" as="targetPoint"/>
                        <Array as="points">
                            <mxPoint x="760" y="70"/>
                            <mxPoint x="640" y="70"/>
                        </Array>
                    </mxGeometry>
                </mxCell>
                <mxCell id="476" value="dep2" style="whiteSpace=wrap;html=1;strokeColor=#87511B;" parent="596" vertex="1">
                    <mxGeometry x="725" y="100" width="70" height="40" as="geometry"/>
                </mxCell>
                <mxCell id="478" style="edgeStyle=none;html=1;entryX=0.567;entryY=1.026;entryDx=0;entryDy=0;entryPerimeter=0;" parent="596" source="479" target="476" edge="1">
                    <mxGeometry relative="1" as="geometry">
                        <Array as="points">
                            <mxPoint x="860" y="150"/>
                            <mxPoint x="765" y="150"/>
                        </Array>
                    </mxGeometry>
                </mxCell>
                <mxCell id="479" value="office3" style="whiteSpace=wrap;html=1;strokeColor=#FFB366;" parent="596" vertex="1">
                    <mxGeometry x="820" y="165" width="70" height="40" as="geometry"/>
                </mxCell>
                <mxCell id="480" style="edgeStyle=none;html=1;" parent="596" source="481" edge="1">
                    <mxGeometry relative="1" as="geometry">
                        <mxPoint x="765" y="140" as="targetPoint"/>
                    </mxGeometry>
                </mxCell>
                <mxCell id="481" value="emp4" style="ellipse;whiteSpace=wrap;html=1;strokeColor=#0066CC;" parent="596" vertex="1">
                    <mxGeometry x="740" y="160" width="50" height="50" as="geometry"/>
                </mxCell>
                <mxCell id="482" style="edgeStyle=none;html=1;entryX=0.142;entryY=1.058;entryDx=0;entryDy=0;entryPerimeter=0;" parent="596" source="483" target="479" edge="1">
                    <mxGeometry relative="1" as="geometry">
                        <Array as="points">
                            <mxPoint x="830" y="245"/>
                        </Array>
                    </mxGeometry>
                </mxCell>
                <mxCell id="483" value="emp5" style="ellipse;whiteSpace=wrap;html=1;strokeColor=#0066CC;" parent="596" vertex="1">
                    <mxGeometry x="850" y="220" width="50" height="50" as="geometry"/>
                </mxCell>
                <mxCell id="484" style="edgeStyle=none;html=1;entryX=0.149;entryY=1.012;entryDx=0;entryDy=0;entryPerimeter=0;" parent="596" source="485" target="479" edge="1">
                    <mxGeometry relative="1" as="geometry">
                        <Array as="points">
                            <mxPoint x="830" y="310"/>
                        </Array>
                    </mxGeometry>
                </mxCell>
                <mxCell id="485" value="emp5" style="ellipse;whiteSpace=wrap;html=1;strokeColor=#0066CC;" parent="596" vertex="1">
                    <mxGeometry x="850" y="290" width="50" height="50" as="geometry"/>
                </mxCell>
                <mxCell id="518" style="edgeStyle=none;html=1;entryX=0.25;entryY=1;entryDx=0;entryDy=0;" parent="596" target="513" edge="1">
                    <mxGeometry relative="1" as="geometry">
                        <mxPoint x="674.9999999999918" y="280" as="sourcePoint"/>
                        <Array as="points">
                            <mxPoint x="658" y="280"/>
                        </Array>
                    </mxGeometry>
                </mxCell>
                <mxCell id="490" value="emp3" style="ellipse;whiteSpace=wrap;html=1;strokeColor=#0066CC;" parent="596" vertex="1">
                    <mxGeometry x="570" y="245" width="50" height="50" as="geometry"/>
                </mxCell>
                <mxCell id="513" value="office2" style="whiteSpace=wrap;html=1;strokeColor=#FFB366;" parent="596" vertex="1">
                    <mxGeometry x="640" y="190" width="70" height="40" as="geometry"/>
                </mxCell>
                <mxCell id="611" style="edgeStyle=none;html=1;entryX=0.5;entryY=1;entryDx=0;entryDy=0;fontSize=14;" parent="596" source="514" target="474" edge="1">
                    <mxGeometry relative="1" as="geometry">
                        <Array as="points">
                            <mxPoint x="590" y="170"/>
                            <mxPoint x="635" y="170"/>
                        </Array>
                    </mxGeometry>
                </mxCell>
                <mxCell id="514" value="office1" style="whiteSpace=wrap;html=1;strokeColor=#FFB366;" parent="596" vertex="1">
                    <mxGeometry x="550" y="190" width="70" height="40" as="geometry"/>
                </mxCell>
                <mxCell id="516" style="edgeStyle=none;html=1;entryX=0;entryY=1;entryDx=0;entryDy=0;" parent="596" source="490" target="514" edge="1">
                    <mxGeometry relative="1" as="geometry">
                        <Array as="points">
                            <mxPoint x="550" y="270"/>
                        </Array>
                    </mxGeometry>
                </mxCell>
                <mxCell id="517" style="edgeStyle=none;html=1;entryX=0;entryY=1;entryDx=0;entryDy=0;" parent="596" source="515" target="514" edge="1">
                    <mxGeometry relative="1" as="geometry">
                        <Array as="points">
                            <mxPoint x="550" y="340"/>
                        </Array>
                    </mxGeometry>
                </mxCell>
                <mxCell id="515" value="emp3" style="ellipse;whiteSpace=wrap;html=1;strokeColor=#0066CC;" parent="596" vertex="1">
                    <mxGeometry x="570" y="315" width="50" height="50" as="geometry"/>
                </mxCell>
                <mxCell id="519" value="emp3" style="ellipse;whiteSpace=wrap;html=1;strokeColor=#0066CC;" parent="596" vertex="1">
                    <mxGeometry x="675" y="255" width="50" height="50" as="geometry"/>
                </mxCell>
                <mxCell id="521" style="edgeStyle=none;html=1;entryX=0.25;entryY=1;entryDx=0;entryDy=0;" parent="596" target="513" edge="1">
                    <mxGeometry relative="1" as="geometry">
                        <mxPoint x="660" y="235" as="targetPoint"/>
                        <mxPoint x="675.1930530821583" y="346.8991316352699" as="sourcePoint"/>
                        <Array as="points">
                            <mxPoint x="660" y="345"/>
                        </Array>
                    </mxGeometry>
                </mxCell>
                <mxCell id="520" value="emp3" style="ellipse;whiteSpace=wrap;html=1;strokeColor=#0066CC;" parent="596" vertex="1">
                    <mxGeometry x="675" y="315" width="50" height="50" as="geometry"/>
                </mxCell>
                <mxCell id="597" value="" style="group" parent="1" vertex="1" connectable="0">
                    <mxGeometry x="-1030" y="1350" width="960" height="330" as="geometry"/>
                </mxCell>
                <mxCell id="543" value="Comp" style="whiteSpace=wrap;html=1;strokeColor=#FFB366;" parent="597" vertex="1">
                    <mxGeometry x="100" width="70" height="40" as="geometry"/>
                </mxCell>
                <mxCell id="544" style="edgeStyle=none;html=1;entryX=0.5;entryY=1;entryDx=0;entryDy=0;" parent="597" source="545" target="543" edge="1">
                    <mxGeometry relative="1" as="geometry">
                        <Array as="points">
                            <mxPoint x="25" y="60"/>
                            <mxPoint x="130" y="60"/>
                        </Array>
                    </mxGeometry>
                </mxCell>
                <mxCell id="545" value="boos1" style="ellipse;whiteSpace=wrap;html=1;strokeColor=#0066CC;" parent="597" vertex="1">
                    <mxGeometry y="90" width="50" height="50" as="geometry"/>
                </mxCell>
                <mxCell id="546" style="edgeStyle=none;html=1;entryX=0.5;entryY=1;entryDx=0;entryDy=0;" parent="597" source="547" target="543" edge="1">
                    <mxGeometry relative="1" as="geometry"/>
                </mxCell>
                <mxCell id="547" value="dep1" style="whiteSpace=wrap;html=1;strokeColor=#FFB366;" parent="597" vertex="1">
                    <mxGeometry x="100" y="90" width="70" height="40" as="geometry"/>
                </mxCell>
                <mxCell id="548" style="edgeStyle=none;html=1;entryX=0.5;entryY=1;entryDx=0;entryDy=0;" parent="597" source="549" target="543" edge="1">
                    <mxGeometry relative="1" as="geometry">
                        <mxPoint x="150" y="40" as="targetPoint"/>
                        <Array as="points">
                            <mxPoint x="260" y="60"/>
                            <mxPoint x="140" y="60"/>
                        </Array>
                    </mxGeometry>
                </mxCell>
                <mxCell id="549" value="dep2" style="whiteSpace=wrap;html=1;strokeColor=#FFB366;" parent="597" vertex="1">
                    <mxGeometry x="225" y="90" width="70" height="40" as="geometry"/>
                </mxCell>
                <mxCell id="550" value="directory1" style="whiteSpace=wrap;html=1;" parent="597" vertex="1">
                    <mxGeometry x="320" y="150" width="70" height="40" as="geometry"/>
                </mxCell>
                <mxCell id="551" style="edgeStyle=none;html=1;entryX=0.567;entryY=1.026;entryDx=0;entryDy=0;entryPerimeter=0;" parent="597" source="552" target="549" edge="1">
                    <mxGeometry relative="1" as="geometry">
                        <Array as="points">
                            <mxPoint x="360" y="140"/>
                            <mxPoint x="265" y="140"/>
                        </Array>
                    </mxGeometry>
                </mxCell>
                <mxCell id="552" value="dep3" style="whiteSpace=wrap;html=1;strokeColor=#FFB366;" parent="597" vertex="1">
                    <mxGeometry x="320" y="150" width="70" height="40" as="geometry"/>
                </mxCell>
                <mxCell id="553" style="edgeStyle=none;html=1;" parent="597" source="554" edge="1">
                    <mxGeometry relative="1" as="geometry">
                        <mxPoint x="265" y="130" as="targetPoint"/>
                    </mxGeometry>
                </mxCell>
                <mxCell id="554" value="boss3" style="ellipse;whiteSpace=wrap;html=1;strokeColor=#0066CC;" parent="597" vertex="1">
                    <mxGeometry x="240" y="150" width="50" height="50" as="geometry"/>
                </mxCell>
                <mxCell id="555" style="edgeStyle=none;html=1;entryX=0.142;entryY=1.058;entryDx=0;entryDy=0;entryPerimeter=0;" parent="597" source="556" target="552" edge="1">
                    <mxGeometry relative="1" as="geometry">
                        <Array as="points">
                            <mxPoint x="330" y="235"/>
                        </Array>
                    </mxGeometry>
                </mxCell>
                <mxCell id="556" value="boss4" style="ellipse;whiteSpace=wrap;html=1;strokeColor=#0066CC;" parent="597" vertex="1">
                    <mxGeometry x="350" y="210" width="50" height="50" as="geometry"/>
                </mxCell>
                <mxCell id="557" style="edgeStyle=none;html=1;entryX=0.149;entryY=1.012;entryDx=0;entryDy=0;entryPerimeter=0;" parent="597" source="558" target="552" edge="1">
                    <mxGeometry relative="1" as="geometry">
                        <Array as="points">
                            <mxPoint x="330" y="300"/>
                        </Array>
                    </mxGeometry>
                </mxCell>
                <mxCell id="558" value="emp2" style="ellipse;whiteSpace=wrap;html=1;strokeColor=#6600CC;fillColor=none;" parent="597" vertex="1">
                    <mxGeometry x="350" y="280" width="50" height="50" as="geometry"/>
                </mxCell>
                <mxCell id="559" value="file1" style="ellipse;whiteSpace=wrap;html=1;" parent="597" vertex="1">
                    <mxGeometry x="140" y="145" width="50" height="50" as="geometry"/>
                </mxCell>
                <mxCell id="560" style="edgeStyle=none;html=1;entryX=0.25;entryY=1;entryDx=0;entryDy=0;" parent="597" source="561" target="547" edge="1">
                    <mxGeometry relative="1" as="geometry">
                        <Array as="points">
                            <mxPoint x="120" y="170"/>
                        </Array>
                    </mxGeometry>
                </mxCell>
                <mxCell id="561" value="boos2" style="ellipse;whiteSpace=wrap;html=1;strokeColor=#0066CC;" parent="597" vertex="1">
                    <mxGeometry x="140" y="145" width="50" height="50" as="geometry"/>
                </mxCell>
                <mxCell id="562" style="edgeStyle=none;html=1;entryX=0.25;entryY=1;entryDx=0;entryDy=0;" parent="597" source="563" target="547" edge="1">
                    <mxGeometry relative="1" as="geometry">
                        <Array as="points">
                            <mxPoint x="118" y="230"/>
                        </Array>
                    </mxGeometry>
                </mxCell>
                <mxCell id="563" value="emp1" style="ellipse;whiteSpace=wrap;html=1;strokeColor=#6600CC;fillColor=none;" parent="597" vertex="1">
                    <mxGeometry x="140" y="205" width="50" height="50" as="geometry"/>
                </mxCell>
                <mxCell id="570" value="CompanyComponent" style="whiteSpace=wrap;html=1;strokeColor=#80FF00;fillColor=none;" parent="597" vertex="1">
                    <mxGeometry x="750" y="120" width="120" height="40" as="geometry"/>
                </mxCell>
                <mxCell id="571" value="department" style="whiteSpace=wrap;html=1;strokeColor=#FFB366;fillColor=none;" parent="597" vertex="1">
                    <mxGeometry x="830" y="230" width="90" height="40" as="geometry"/>
                </mxCell>
                <mxCell id="572" value="client" style="whiteSpace=wrap;html=1;strokeColor=#F0F0F0;fillColor=none;" parent="597" vertex="1">
                    <mxGeometry x="550" y="120" width="90" height="40" as="geometry"/>
                </mxCell>
                <mxCell id="573" value="" style="endArrow=block;dashed=1;endFill=0;endSize=12;html=1;entryX=0.5;entryY=1;entryDx=0;entryDy=0;exitX=0.5;exitY=0;exitDx=0;exitDy=0;" parent="597" target="570" edge="1">
                    <mxGeometry width="160" relative="1" as="geometry">
                        <mxPoint x="745" y="230" as="sourcePoint"/>
                        <mxPoint x="930" y="300" as="targetPoint"/>
                    </mxGeometry>
                </mxCell>
                <mxCell id="574" value="inherit" style="edgeLabel;html=1;align=center;verticalAlign=middle;resizable=0;points=[];" parent="573" vertex="1" connectable="0">
                    <mxGeometry x="0.3189" y="-1" relative="1" as="geometry">
                        <mxPoint y="1" as="offset"/>
                    </mxGeometry>
                </mxCell>
                <mxCell id="575" value="inherit" style="edgeLabel;html=1;align=center;verticalAlign=middle;resizable=0;points=[];" parent="573" vertex="1" connectable="0">
                    <mxGeometry x="0.3189" y="-1" relative="1" as="geometry">
                        <mxPoint x="46" y="6" as="offset"/>
                    </mxGeometry>
                </mxCell>
                <mxCell id="576" value="" style="endArrow=block;dashed=1;endFill=0;endSize=12;html=1;entryX=0.5;entryY=1;entryDx=0;entryDy=0;exitX=0.5;exitY=0;exitDx=0;exitDy=0;" parent="597" source="571" target="570" edge="1">
                    <mxGeometry width="160" relative="1" as="geometry">
                        <mxPoint x="680" y="310" as="sourcePoint"/>
                        <mxPoint x="840" y="310" as="targetPoint"/>
                    </mxGeometry>
                </mxCell>
                <mxCell id="577" value="" style="endArrow=diamondThin;endFill=0;endSize=24;html=1;entryX=1;entryY=0.5;entryDx=0;entryDy=0;exitX=1;exitY=0.5;exitDx=0;exitDy=0;" parent="597" source="570" target="571" edge="1">
                    <mxGeometry width="160" relative="1" as="geometry">
                        <mxPoint x="720" y="210" as="sourcePoint"/>
                        <mxPoint x="880" y="210" as="targetPoint"/>
                        <Array as="points">
                            <mxPoint x="960" y="140"/>
                            <mxPoint x="960" y="250"/>
                        </Array>
                    </mxGeometry>
                </mxCell>
                <mxCell id="604" value="0..n" style="edgeLabel;html=1;align=center;verticalAlign=middle;resizable=0;points=[];" parent="577" vertex="1" connectable="0">
                    <mxGeometry x="-0.7548" y="-1" relative="1" as="geometry">
                        <mxPoint as="offset"/>
                    </mxGeometry>
                </mxCell>
                <mxCell id="578" value="Use" style="endArrow=open;endSize=12;dashed=1;html=1;entryX=0;entryY=0.5;entryDx=0;entryDy=0;" parent="597" target="570" edge="1">
                    <mxGeometry width="160" relative="1" as="geometry">
                        <mxPoint x="640" y="139.65999999999985" as="sourcePoint"/>
                        <mxPoint x="800" y="139.65999999999985" as="targetPoint"/>
                    </mxGeometry>
                </mxCell>
                <mxCell id="579" value="boss" style="ellipse;whiteSpace=wrap;html=1;strokeColor=#0066CC;container=0;" parent="597" vertex="1">
                    <mxGeometry x="720" y="225" width="55" height="55" as="geometry"/>
                </mxCell>
                <mxCell id="580" value="emp" style="ellipse;whiteSpace=wrap;html=1;strokeColor=#6600CC;fillColor=none;" parent="597" vertex="1">
                    <mxGeometry x="660" y="227.5" width="50" height="50" as="geometry"/>
                </mxCell>
                <mxCell id="593" value="" style="endArrow=block;dashed=1;endFill=0;endSize=12;html=1;entryX=0.25;entryY=1;entryDx=0;entryDy=0;exitX=0.5;exitY=0;exitDx=0;exitDy=0;" parent="597" target="570" edge="1">
                    <mxGeometry width="160" relative="1" as="geometry">
                        <mxPoint x="685" y="230" as="sourcePoint"/>
                        <mxPoint x="750" y="160" as="targetPoint"/>
                    </mxGeometry>
                </mxCell>
                <mxCell id="594" value="inherit" style="edgeLabel;html=1;align=center;verticalAlign=middle;resizable=0;points=[];" parent="593" vertex="1" connectable="0">
                    <mxGeometry x="0.3189" y="-1" relative="1" as="geometry">
                        <mxPoint y="1" as="offset"/>
                    </mxGeometry>
                </mxCell>
                <mxCell id="615" value="GetCost()" style="text;html=1;align=center;verticalAlign=middle;resizable=0;points=[];autosize=1;strokeColor=none;fillColor=none;fontSize=14;" parent="597" vertex="1">
                    <mxGeometry x="775" y="70" width="80" height="30" as="geometry"/>
                </mxCell>
                <mxCell id="598" value="" style="group" parent="1" vertex="1" connectable="0">
                    <mxGeometry x="-1030" y="480" width="990" height="330" as="geometry"/>
                </mxCell>
                <mxCell id="410" value="root directory" style="whiteSpace=wrap;html=1;container=0;strokeColor=#FFB366;" parent="598" vertex="1">
                    <mxGeometry x="130" width="80" height="40" as="geometry"/>
                </mxCell>
                <mxCell id="422" style="edgeStyle=none;html=1;entryX=0.5;entryY=1;entryDx=0;entryDy=0;" parent="598" source="411" target="410" edge="1">
                    <mxGeometry relative="1" as="geometry">
                        <Array as="points">
                            <mxPoint x="30" y="60"/>
                            <mxPoint x="160" y="60"/>
                        </Array>
                    </mxGeometry>
                </mxCell>
                <mxCell id="411" value="file1" style="ellipse;whiteSpace=wrap;html=1;strokeColor=#0066CC;container=0;" parent="598" vertex="1">
                    <mxGeometry y="80" width="50" height="50" as="geometry"/>
                </mxCell>
                <mxCell id="423" style="edgeStyle=none;html=1;entryX=0.5;entryY=1;entryDx=0;entryDy=0;" parent="598" source="412" target="410" edge="1">
                    <mxGeometry relative="1" as="geometry"/>
                </mxCell>
                <mxCell id="412" value="dirctory1" style="whiteSpace=wrap;html=1;container=0;strokeColor=#FFB366;" parent="598" vertex="1">
                    <mxGeometry x="130" y="80" width="70" height="40" as="geometry"/>
                </mxCell>
                <mxCell id="424" style="edgeStyle=none;html=1;entryX=0.5;entryY=1;entryDx=0;entryDy=0;" parent="598" source="413" target="410" edge="1">
                    <mxGeometry relative="1" as="geometry">
                        <mxPoint x="180" y="40" as="targetPoint"/>
                        <Array as="points">
                            <mxPoint x="290" y="60"/>
                            <mxPoint x="170" y="60"/>
                        </Array>
                    </mxGeometry>
                </mxCell>
                <mxCell id="413" value="directory2" style="whiteSpace=wrap;html=1;container=0;strokeColor=#FFB366;" parent="598" vertex="1">
                    <mxGeometry x="255" y="80" width="70" height="40" as="geometry"/>
                </mxCell>
                <mxCell id="414" value="directory1" style="whiteSpace=wrap;html=1;container=0;" parent="598" vertex="1">
                    <mxGeometry x="350" y="150" width="70" height="40" as="geometry"/>
                </mxCell>
                <mxCell id="428" style="edgeStyle=none;html=1;entryX=0.567;entryY=1.026;entryDx=0;entryDy=0;entryPerimeter=0;" parent="598" source="415" target="413" edge="1">
                    <mxGeometry relative="1" as="geometry">
                        <Array as="points">
                            <mxPoint x="385" y="130"/>
                            <mxPoint x="295" y="130"/>
                        </Array>
                    </mxGeometry>
                </mxCell>
                <mxCell id="415" value="directory3" style="whiteSpace=wrap;html=1;container=0;strokeColor=#FFB366;" parent="598" vertex="1">
                    <mxGeometry x="350" y="150" width="70" height="40" as="geometry"/>
                </mxCell>
                <mxCell id="427" style="edgeStyle=none;html=1;" parent="598" source="416" edge="1">
                    <mxGeometry relative="1" as="geometry">
                        <mxPoint x="295" y="120" as="targetPoint"/>
                    </mxGeometry>
                </mxCell>
                <mxCell id="416" value="file4" style="ellipse;whiteSpace=wrap;html=1;strokeColor=#0066CC;container=0;" parent="598" vertex="1">
                    <mxGeometry x="270" y="150" width="50" height="50" as="geometry"/>
                </mxCell>
                <mxCell id="429" style="edgeStyle=none;html=1;entryX=0.142;entryY=1.058;entryDx=0;entryDy=0;entryPerimeter=0;" parent="598" source="417" target="415" edge="1">
                    <mxGeometry relative="1" as="geometry">
                        <Array as="points">
                            <mxPoint x="360" y="235"/>
                        </Array>
                    </mxGeometry>
                </mxCell>
                <mxCell id="417" value="file5" style="ellipse;whiteSpace=wrap;html=1;strokeColor=#0066CC;container=0;" parent="598" vertex="1">
                    <mxGeometry x="380" y="210" width="50" height="50" as="geometry"/>
                </mxCell>
                <mxCell id="430" style="edgeStyle=none;html=1;entryX=0.149;entryY=1.012;entryDx=0;entryDy=0;entryPerimeter=0;" parent="598" source="418" target="415" edge="1">
                    <mxGeometry relative="1" as="geometry">
                        <Array as="points">
                            <mxPoint x="360" y="300"/>
                        </Array>
                    </mxGeometry>
                </mxCell>
                <mxCell id="418" value="file6" style="ellipse;whiteSpace=wrap;html=1;strokeColor=#0066CC;container=0;" parent="598" vertex="1">
                    <mxGeometry x="380" y="280" width="50" height="50" as="geometry"/>
                </mxCell>
                <mxCell id="419" value="file1" style="ellipse;whiteSpace=wrap;html=1;container=0;" parent="598" vertex="1">
                    <mxGeometry x="170" y="150" width="50" height="50" as="geometry"/>
                </mxCell>
                <mxCell id="425" style="edgeStyle=none;html=1;entryX=0.25;entryY=1;entryDx=0;entryDy=0;" parent="598" source="420" target="412" edge="1">
                    <mxGeometry relative="1" as="geometry">
                        <Array as="points">
                            <mxPoint x="150" y="160"/>
                        </Array>
                    </mxGeometry>
                </mxCell>
                <mxCell id="420" value="file2" style="ellipse;whiteSpace=wrap;html=1;strokeColor=#0066CC;container=0;" parent="598" vertex="1">
                    <mxGeometry x="170" y="150" width="50" height="50" as="geometry"/>
                </mxCell>
                <mxCell id="426" style="edgeStyle=none;html=1;entryX=0.25;entryY=1;entryDx=0;entryDy=0;" parent="598" source="421" target="412" edge="1">
                    <mxGeometry relative="1" as="geometry">
                        <Array as="points">
                            <mxPoint x="148" y="230"/>
                        </Array>
                    </mxGeometry>
                </mxCell>
                <mxCell id="421" value="file3" style="ellipse;whiteSpace=wrap;html=1;strokeColor=#0066CC;container=0;" parent="598" vertex="1">
                    <mxGeometry x="170" y="210" width="50" height="50" as="geometry"/>
                </mxCell>
                <mxCell id="581" value="ExplorerComponent" style="whiteSpace=wrap;html=1;strokeColor=#80FF00;fillColor=none;" parent="598" vertex="1">
                    <mxGeometry x="780" y="70" width="120" height="40" as="geometry"/>
                </mxCell>
                <mxCell id="582" value="directory" style="whiteSpace=wrap;html=1;strokeColor=#FFB366;fillColor=none;" parent="598" vertex="1">
                    <mxGeometry x="860" y="180" width="90" height="40" as="geometry"/>
                </mxCell>
                <mxCell id="583" value="client" style="whiteSpace=wrap;html=1;strokeColor=#F0F0F0;fillColor=none;" parent="598" vertex="1">
                    <mxGeometry x="580" y="70" width="90" height="40" as="geometry"/>
                </mxCell>
                <mxCell id="584" value="" style="endArrow=block;dashed=1;endFill=0;endSize=12;html=1;entryX=0.5;entryY=1;entryDx=0;entryDy=0;exitX=0.5;exitY=0;exitDx=0;exitDy=0;" parent="598" target="581" edge="1">
                    <mxGeometry width="160" relative="1" as="geometry">
                        <mxPoint x="775" y="179.9999999999999" as="sourcePoint"/>
                        <mxPoint x="960" y="250" as="targetPoint"/>
                    </mxGeometry>
                </mxCell>
                <mxCell id="585" value="inherit" style="edgeLabel;html=1;align=center;verticalAlign=middle;resizable=0;points=[];" parent="584" vertex="1" connectable="0">
                    <mxGeometry x="0.3189" y="-1" relative="1" as="geometry">
                        <mxPoint y="1" as="offset"/>
                    </mxGeometry>
                </mxCell>
                <mxCell id="586" value="inherit" style="edgeLabel;html=1;align=center;verticalAlign=middle;resizable=0;points=[];" parent="584" vertex="1" connectable="0">
                    <mxGeometry x="0.3189" y="-1" relative="1" as="geometry">
                        <mxPoint x="46" y="6" as="offset"/>
                    </mxGeometry>
                </mxCell>
                <mxCell id="587" value="" style="endArrow=block;dashed=1;endFill=0;endSize=12;html=1;entryX=0.5;entryY=1;entryDx=0;entryDy=0;exitX=0.5;exitY=0;exitDx=0;exitDy=0;" parent="598" source="582" target="581" edge="1">
                    <mxGeometry width="160" relative="1" as="geometry">
                        <mxPoint x="710" y="260" as="sourcePoint"/>
                        <mxPoint x="870" y="260" as="targetPoint"/>
                    </mxGeometry>
                </mxCell>
                <mxCell id="588" value="" style="endArrow=diamondThin;endFill=0;endSize=24;html=1;entryX=1;entryY=0.5;entryDx=0;entryDy=0;exitX=1;exitY=0.5;exitDx=0;exitDy=0;" parent="598" source="581" target="582" edge="1">
                    <mxGeometry width="160" relative="1" as="geometry">
                        <mxPoint x="750" y="160" as="sourcePoint"/>
                        <mxPoint x="910" y="160" as="targetPoint"/>
                        <Array as="points">
                            <mxPoint x="990" y="90"/>
                            <mxPoint x="990" y="200"/>
                        </Array>
                    </mxGeometry>
                </mxCell>
                <mxCell id="603" value="0..n" style="edgeLabel;html=1;align=center;verticalAlign=middle;resizable=0;points=[];" parent="588" vertex="1" connectable="0">
                    <mxGeometry x="-0.7989" relative="1" as="geometry">
                        <mxPoint x="-1" as="offset"/>
                    </mxGeometry>
                </mxCell>
                <mxCell id="589" value="Use" style="endArrow=open;endSize=12;dashed=1;html=1;entryX=0;entryY=0.5;entryDx=0;entryDy=0;" parent="598" target="581" edge="1">
                    <mxGeometry width="160" relative="1" as="geometry">
                        <mxPoint x="670" y="89.65999999999997" as="sourcePoint"/>
                        <mxPoint x="830" y="89.65999999999997" as="targetPoint"/>
                    </mxGeometry>
                </mxCell>
                <mxCell id="590" value="file" style="ellipse;whiteSpace=wrap;html=1;strokeColor=#0066CC;container=0;" parent="598" vertex="1">
                    <mxGeometry x="750" y="175" width="55" height="55" as="geometry"/>
                </mxCell>
                <mxCell id="613" value="GetSize()" style="text;html=1;align=center;verticalAlign=middle;resizable=0;points=[];autosize=1;strokeColor=none;fillColor=none;fontSize=14;" parent="598" vertex="1">
                    <mxGeometry x="820" y="10" width="80" height="30" as="geometry"/>
                </mxCell>
                <mxCell id="610" value="&lt;div&gt;&lt;font style=&quot;font-size: 14px;&quot;&gt;1. Is there a hierarchical structure in your domain?&lt;/font&gt;&lt;/div&gt;&lt;div&gt;&lt;font style=&quot;font-size: 14px;&quot;&gt;2. Do we need to treat individual objects and groups of objects uniformly?&lt;/font&gt;&lt;/div&gt;" style="text;html=1;align=left;verticalAlign=middle;resizable=0;points=[];autosize=1;strokeColor=none;fillColor=none;fontSize=12;" parent="1" vertex="1">
                    <mxGeometry x="-570" y="220" width="480" height="50" as="geometry"/>
                </mxCell>
                <mxCell id="612" style="edgeStyle=none;html=1;fontSize=14;" parent="1" source="513" edge="1">
                    <mxGeometry relative="1" as="geometry">
                        <mxPoint x="-410" y="1050" as="targetPoint"/>
                        <Array as="points">
                            <mxPoint x="-375" y="1080"/>
                            <mxPoint x="-410" y="1080"/>
                        </Array>
                    </mxGeometry>
                </mxCell>
                <mxCell id="661" value="" style="group" parent="1" vertex="1" connectable="0">
                    <mxGeometry x="-1000" y="1750" width="680" height="286" as="geometry"/>
                </mxCell>
                <mxCell id="625" value="&lt;&lt;abstract&gt;&gt;&#10;Component" style="swimlane;fontStyle=1;align=center;verticalAlign=top;childLayout=stackLayout;horizontal=1;startSize=50;horizontalStack=0;resizeParent=1;resizeParentMax=0;resizeLast=0;collapsible=1;marginBottom=0;strokeColor=#39D40B;fontSize=14;fillColor=none;" parent="661" vertex="1">
                    <mxGeometry x="360" width="200" height="84" as="geometry"/>
                </mxCell>
                <mxCell id="627" value="" style="line;strokeWidth=1;fillColor=none;align=left;verticalAlign=middle;spacingTop=-1;spacingLeft=3;spacingRight=3;rotatable=0;labelPosition=right;points=[];portConstraint=eastwest;strokeColor=inherit;fontSize=14;" parent="625" vertex="1">
                    <mxGeometry y="50" width="200" height="8" as="geometry"/>
                </mxCell>
                <mxCell id="628" value="+ Operation(): void" style="text;strokeColor=none;fillColor=none;align=left;verticalAlign=top;spacingLeft=4;spacingRight=4;overflow=hidden;rotatable=0;points=[[0,0.5],[1,0.5]];portConstraint=eastwest;fontSize=14;" parent="625" vertex="1">
                    <mxGeometry y="58" width="200" height="26" as="geometry"/>
                </mxCell>
                <mxCell id="629" value="Leaf" style="swimlane;fontStyle=1;align=center;verticalAlign=top;childLayout=stackLayout;horizontal=1;startSize=26;horizontalStack=0;resizeParent=1;resizeParentMax=0;resizeLast=0;collapsible=1;marginBottom=0;strokeColor=#FFFFFF;fontSize=14;fillColor=none;" parent="661" vertex="1">
                    <mxGeometry x="280" y="200" width="160" height="86" as="geometry"/>
                </mxCell>
                <mxCell id="630" value="+ field: type" style="text;strokeColor=none;fillColor=none;align=left;verticalAlign=top;spacingLeft=4;spacingRight=4;overflow=hidden;rotatable=0;points=[[0,0.5],[1,0.5]];portConstraint=eastwest;fontSize=14;" parent="629" vertex="1">
                    <mxGeometry y="26" width="160" height="26" as="geometry"/>
                </mxCell>
                <mxCell id="631" value="" style="line;strokeWidth=1;fillColor=none;align=left;verticalAlign=middle;spacingTop=-1;spacingLeft=3;spacingRight=3;rotatable=0;labelPosition=right;points=[];portConstraint=eastwest;strokeColor=inherit;fontSize=14;" parent="629" vertex="1">
                    <mxGeometry y="52" width="160" height="8" as="geometry"/>
                </mxCell>
                <mxCell id="632" value="+ Operation(): void" style="text;strokeColor=none;fillColor=none;align=left;verticalAlign=top;spacingLeft=4;spacingRight=4;overflow=hidden;rotatable=0;points=[[0,0.5],[1,0.5]];portConstraint=eastwest;fontSize=14;" parent="629" vertex="1">
                    <mxGeometry y="60" width="160" height="26" as="geometry"/>
                </mxCell>
                <mxCell id="633" value="Composit" style="swimlane;fontStyle=1;align=center;verticalAlign=top;childLayout=stackLayout;horizontal=1;startSize=26;horizontalStack=0;resizeParent=1;resizeParentMax=0;resizeLast=0;collapsible=1;marginBottom=0;strokeColor=#FFFFFF;fontSize=14;fillColor=none;" parent="661" vertex="1">
                    <mxGeometry x="480" y="200" width="200" height="86" as="geometry"/>
                </mxCell>
                <mxCell id="634" value="-children:List&lt;Component&gt;" style="text;strokeColor=none;fillColor=none;align=left;verticalAlign=top;spacingLeft=4;spacingRight=4;overflow=hidden;rotatable=0;points=[[0,0.5],[1,0.5]];portConstraint=eastwest;fontSize=14;" parent="633" vertex="1">
                    <mxGeometry y="26" width="200" height="26" as="geometry"/>
                </mxCell>
                <mxCell id="635" value="" style="line;strokeWidth=1;fillColor=none;align=left;verticalAlign=middle;spacingTop=-1;spacingLeft=3;spacingRight=3;rotatable=0;labelPosition=right;points=[];portConstraint=eastwest;strokeColor=inherit;fontSize=14;" parent="633" vertex="1">
                    <mxGeometry y="52" width="200" height="8" as="geometry"/>
                </mxCell>
                <mxCell id="636" value="+ Operation(): void" style="text;strokeColor=none;fillColor=none;align=left;verticalAlign=top;spacingLeft=4;spacingRight=4;overflow=hidden;rotatable=0;points=[[0,0.5],[1,0.5]];portConstraint=eastwest;fontSize=14;" parent="633" vertex="1">
                    <mxGeometry y="60" width="200" height="26" as="geometry"/>
                </mxCell>
                <mxCell id="637" value="&amp;lt;&amp;lt;extend&amp;gt;&amp;gt;" style="html=1;verticalAlign=bottom;labelBackgroundColor=none;endArrow=open;endFill=0;dashed=1;fontSize=14;exitX=0.75;exitY=0;exitDx=0;exitDy=0;entryX=0.2;entryY=1;entryDx=0;entryDy=0;entryPerimeter=0;" parent="661" source="629" target="628" edge="1">
                    <mxGeometry width="160" relative="1" as="geometry">
                        <mxPoint x="420" y="100" as="sourcePoint"/>
                        <mxPoint x="580" y="100" as="targetPoint"/>
                    </mxGeometry>
                </mxCell>
                <mxCell id="639" value="&amp;lt;&amp;lt;extend&amp;gt;&amp;gt;" style="html=1;verticalAlign=bottom;labelBackgroundColor=none;endArrow=open;endFill=0;dashed=1;fontSize=14;entryX=0.797;entryY=1.055;entryDx=0;entryDy=0;entryPerimeter=0;" parent="661" target="628" edge="1">
                    <mxGeometry width="160" relative="1" as="geometry">
                        <mxPoint x="519" y="200" as="sourcePoint"/>
                        <mxPoint x="580" y="100" as="targetPoint"/>
                    </mxGeometry>
                </mxCell>
                <mxCell id="640" value="" style="endArrow=diamondThin;endFill=0;endSize=24;html=1;fontSize=14;entryX=0.75;entryY=0;entryDx=0;entryDy=0;" parent="661" target="633" edge="1">
                    <mxGeometry width="160" relative="1" as="geometry">
                        <mxPoint x="560" y="70" as="sourcePoint"/>
                        <mxPoint x="580" y="100" as="targetPoint"/>
                        <Array as="points">
                            <mxPoint x="630" y="70"/>
                        </Array>
                    </mxGeometry>
                </mxCell>
                <mxCell id="641" value="0..n" style="edgeLabel;html=1;align=center;verticalAlign=middle;resizable=0;points=[];fontSize=14;" parent="640" vertex="1" connectable="0">
                    <mxGeometry x="-0.8793" relative="1" as="geometry">
                        <mxPoint x="10" y="-10" as="offset"/>
                    </mxGeometry>
                </mxCell>
                <mxCell id="642" value="client" style="html=1;strokeColor=#FFFFFF;fontSize=14;fillColor=none;" parent="661" vertex="1">
                    <mxGeometry width="110" height="50" as="geometry"/>
                </mxCell>
                <mxCell id="643" value="Use" style="endArrow=open;endSize=12;dashed=1;html=1;fontSize=14;exitX=1;exitY=0.5;exitDx=0;exitDy=0;entryX=-0.001;entryY=0.303;entryDx=0;entryDy=0;entryPerimeter=0;" parent="661" source="642" target="625" edge="1">
                    <mxGeometry width="160" relative="1" as="geometry">
                        <mxPoint x="190" y="100" as="sourcePoint"/>
                        <mxPoint x="350" y="100" as="targetPoint"/>
                    </mxGeometry>
                </mxCell>
                <mxCell id="662" value="" style="group" parent="1" vertex="1" connectable="0">
                    <mxGeometry x="-1030" y="2110" width="690" height="390" as="geometry"/>
                </mxCell>
                <mxCell id="644" value="&lt;&lt;abstract&gt;&gt;&#10;Component" style="swimlane;fontStyle=1;align=center;verticalAlign=top;childLayout=stackLayout;horizontal=1;startSize=50;horizontalStack=0;resizeParent=1;resizeParentMax=0;resizeLast=0;collapsible=1;marginBottom=0;strokeColor=#45D94A;fontSize=14;fillColor=none;" parent="662" vertex="1">
                    <mxGeometry x="330" width="240" height="160" as="geometry"/>
                </mxCell>
                <mxCell id="645" value="" style="line;strokeWidth=1;fillColor=none;align=left;verticalAlign=middle;spacingTop=-1;spacingLeft=3;spacingRight=3;rotatable=0;labelPosition=right;points=[];portConstraint=eastwest;strokeColor=inherit;fontSize=14;" parent="644" vertex="1">
                    <mxGeometry y="50" width="240" height="8" as="geometry"/>
                </mxCell>
                <mxCell id="646" value="+ Operation(): void&#10;&#10;Add(Component comp):void&#10;Remove(Component comp)&#10;GetChild():Component" style="text;strokeColor=none;fillColor=none;align=left;verticalAlign=top;spacingLeft=4;spacingRight=4;overflow=hidden;rotatable=0;points=[[0,0.5],[1,0.5]];portConstraint=eastwest;fontSize=14;" parent="644" vertex="1">
                    <mxGeometry y="58" width="240" height="102" as="geometry"/>
                </mxCell>
                <mxCell id="647" value="Leaf" style="swimlane;fontStyle=1;align=center;verticalAlign=top;childLayout=stackLayout;horizontal=1;startSize=26;horizontalStack=0;resizeParent=1;resizeParentMax=0;resizeLast=0;collapsible=1;marginBottom=0;strokeColor=#FFFFFF;fontSize=14;fillColor=none;" parent="662" vertex="1">
                    <mxGeometry x="290" y="240" width="160" height="86" as="geometry"/>
                </mxCell>
                <mxCell id="648" value="+ field: type" style="text;strokeColor=none;fillColor=none;align=left;verticalAlign=top;spacingLeft=4;spacingRight=4;overflow=hidden;rotatable=0;points=[[0,0.5],[1,0.5]];portConstraint=eastwest;fontSize=14;" parent="647" vertex="1">
                    <mxGeometry y="26" width="160" height="26" as="geometry"/>
                </mxCell>
                <mxCell id="649" value="" style="line;strokeWidth=1;fillColor=none;align=left;verticalAlign=middle;spacingTop=-1;spacingLeft=3;spacingRight=3;rotatable=0;labelPosition=right;points=[];portConstraint=eastwest;strokeColor=inherit;fontSize=14;" parent="647" vertex="1">
                    <mxGeometry y="52" width="160" height="8" as="geometry"/>
                </mxCell>
                <mxCell id="650" value="+ Operation(): void" style="text;strokeColor=none;fillColor=none;align=left;verticalAlign=top;spacingLeft=4;spacingRight=4;overflow=hidden;rotatable=0;points=[[0,0.5],[1,0.5]];portConstraint=eastwest;fontSize=14;" parent="647" vertex="1">
                    <mxGeometry y="60" width="160" height="26" as="geometry"/>
                </mxCell>
                <mxCell id="651" value="Composite" style="swimlane;fontStyle=1;align=center;verticalAlign=top;childLayout=stackLayout;horizontal=1;startSize=26;horizontalStack=0;resizeParent=1;resizeParentMax=0;resizeLast=0;collapsible=1;marginBottom=0;strokeColor=#FFFFFF;fontSize=14;fillColor=none;" parent="662" vertex="1">
                    <mxGeometry x="490" y="240" width="200" height="150" as="geometry"/>
                </mxCell>
                <mxCell id="652" value="-childrent:List&lt;Component&gt;" style="text;strokeColor=none;fillColor=none;align=left;verticalAlign=top;spacingLeft=4;spacingRight=4;overflow=hidden;rotatable=0;points=[[0,0.5],[1,0.5]];portConstraint=eastwest;fontSize=14;" parent="651" vertex="1">
                    <mxGeometry y="26" width="200" height="26" as="geometry"/>
                </mxCell>
                <mxCell id="653" value="" style="line;strokeWidth=1;fillColor=none;align=left;verticalAlign=middle;spacingTop=-1;spacingLeft=3;spacingRight=3;rotatable=0;labelPosition=right;points=[];portConstraint=eastwest;strokeColor=inherit;fontSize=14;" parent="651" vertex="1">
                    <mxGeometry y="52" width="200" height="8" as="geometry"/>
                </mxCell>
                <mxCell id="654" value="+ Operation(): void&#10;&#10;Add(Component comp):void&#10;Remove(Component comp)&#10;GetChild():Component" style="text;strokeColor=none;fillColor=none;align=left;verticalAlign=top;spacingLeft=4;spacingRight=4;overflow=hidden;rotatable=0;points=[[0,0.5],[1,0.5]];portConstraint=eastwest;fontSize=14;" parent="651" vertex="1">
                    <mxGeometry y="60" width="200" height="90" as="geometry"/>
                </mxCell>
                <mxCell id="655" value="&amp;lt;&amp;lt;extend&amp;gt;&amp;gt;" style="html=1;verticalAlign=bottom;labelBackgroundColor=none;endArrow=open;endFill=0;dashed=1;fontSize=14;exitX=0.75;exitY=0;exitDx=0;exitDy=0;entryX=0.347;entryY=1.056;entryDx=0;entryDy=0;entryPerimeter=0;" parent="662" source="647" target="646" edge="1">
                    <mxGeometry width="160" relative="1" as="geometry">
                        <mxPoint x="430" y="100" as="sourcePoint"/>
                        <mxPoint x="590" y="100" as="targetPoint"/>
                    </mxGeometry>
                </mxCell>
                <mxCell id="656" value="&amp;lt;&amp;lt;extend&amp;gt;&amp;gt;" style="html=1;verticalAlign=bottom;labelBackgroundColor=none;endArrow=open;endFill=0;dashed=1;fontSize=14;entryX=0.835;entryY=1.018;entryDx=0;entryDy=0;entryPerimeter=0;exitX=0.196;exitY=0.006;exitDx=0;exitDy=0;exitPerimeter=0;" parent="662" source="651" target="646" edge="1">
                    <mxGeometry width="160" relative="1" as="geometry">
                        <mxPoint x="529" y="230" as="sourcePoint"/>
                        <mxPoint x="590" y="100" as="targetPoint"/>
                    </mxGeometry>
                </mxCell>
                <mxCell id="657" value="" style="endArrow=diamondThin;endFill=0;endSize=24;html=1;fontSize=14;entryX=0.75;entryY=0;entryDx=0;entryDy=0;" parent="662" target="651" edge="1">
                    <mxGeometry width="160" relative="1" as="geometry">
                        <mxPoint x="570" y="70" as="sourcePoint"/>
                        <mxPoint x="590" y="100" as="targetPoint"/>
                        <Array as="points">
                            <mxPoint x="640" y="70"/>
                        </Array>
                    </mxGeometry>
                </mxCell>
                <mxCell id="658" value="0..n" style="edgeLabel;html=1;align=center;verticalAlign=middle;resizable=0;points=[];fontSize=14;" parent="657" vertex="1" connectable="0">
                    <mxGeometry x="-0.8793" relative="1" as="geometry">
                        <mxPoint x="10" y="-10" as="offset"/>
                    </mxGeometry>
                </mxCell>
                <mxCell id="659" value="client" style="html=1;strokeColor=#FFFFFF;fontSize=14;fillColor=none;" parent="662" vertex="1">
                    <mxGeometry y="20" width="110" height="50" as="geometry"/>
                </mxCell>
                <mxCell id="660" value="Use" style="endArrow=open;endSize=12;dashed=1;html=1;fontSize=14;exitX=1;exitY=0.5;exitDx=0;exitDy=0;entryX=-0.001;entryY=0.303;entryDx=0;entryDy=0;entryPerimeter=0;" parent="662" source="659" target="644" edge="1">
                    <mxGeometry width="160" relative="1" as="geometry">
                        <mxPoint x="200" y="100" as="sourcePoint"/>
                        <mxPoint x="360" y="100" as="targetPoint"/>
                    </mxGeometry>
                </mxCell>
                <mxCell id="664" value="Leaf" style="whiteSpace=wrap;html=1;strokeColor=#0066CC;fillColor=none;" vertex="1" parent="1">
                    <mxGeometry x="-890" y="320" width="90" height="40" as="geometry"/>
                </mxCell>
            </root>
        </mxGraphModel>
    </diagram>
</mxfile>